<?xml version="1.0" encoding="utf-8"?>
<!-- Generator: Adobe Illustrator 12.0.1, SVG Export Plug-In . SVG Version: 6.00 Build 51448)  -->
<!DOCTYPE svg PUBLIC "-//W3C//DTD SVG 1.1//EN" "http://www.w3.org/Graphics/SVG/1.1/DTD/svg11.dtd" [
	<!ENTITY ns_svg "http://www.w3.org/2000/svg">
	<!ENTITY ns_xlink "http://www.w3.org/1999/xlink">
	<!ENTITY st0 "fill:none;stroke:#000000;">
	<!ENTITY st1 "fill:#FFFFFF;stroke:#000000;">
]>
<svg  version="1.1" id="Layer_1" xmlns="&ns_svg;" xmlns:xlink="&ns_xlink;" width="155" height="216" viewBox="0 0 155 216"
	 style="overflow:visible;enable-background:new 0 0 155 216;" xml:space="preserve">
<rect x="0.5" y="0.5" style="&st1;" width="154" height="215"/>
<circle style="&st0;" cx="46.833" cy="46.75" r="15"/>
<circle style="&st0;" cx="108.167" cy="46.75" r="14.5"/>
<circle style="&st0;" cx="46.833" cy="108" r="14.5"/>
<circle style="&st0;" cx="108.167" cy="108" r="14.5"/>
<circle style="&st0;" cx="46.833" cy="169.25" r="14.5"/>
<circle style="&st0;" cx="108.167" cy="169.25" r="14.5"/>
<g>
	<path d="M112.322,162.566c-0.192-0.031-0.416-0.031-0.64-0.031c-4.608,0-6.977,2.559-7.68,6.559l0.096-0.063
		c1.216-1.504,2.88-2.112,4.672-2.112c3.488,0,5.216,2.592,5.216,4.961c0,2.879-2.24,5.791-6.017,5.791
		c-2.911,0-5.567-1.951-5.567-6.848c0-4.031,1.761-6.496,3.328-7.808c1.536-1.248,3.776-1.888,6.592-1.888V162.566z M112.45,171.91
		c0-1.951-1.568-3.775-3.968-3.775c-2.464,0-4.544,1.664-4.544,3.008c0,1.855,0.736,5.312,4.352,5.312
		C110.979,176.454,112.45,174.022,112.45,171.91z"/>
</g>
<g>
	<path d="M46.735,39.937h-0.064l-2.624,1.472l-0.32-1.248l3.008-1.664h1.536v16.448h-1.536V39.937z"/>
</g>
<g>
	<path d="M41.68,116.068v-0.992l1.664-1.439c5.792-5.121,7.296-6.657,7.296-8.864c0-1.632-0.832-3.616-3.936-3.616
		c-1.6,0-3.072,0.768-3.968,1.568l-0.544-1.056c1.376-1.216,3.072-1.856,4.832-1.856c4.064,0,5.184,2.976,5.184,4.576
		c0,3.2-2.304,5.215-7.2,9.504l-1.056,0.799v0.064h8.736v1.312H41.68z"/>
</g>
<g>
	<path d="M42.352,175.207c0.704,0.48,2.336,1.184,4.064,1.184c3.968,0,4.48-2.688,4.48-3.488c-0.064-2.72-2.88-3.52-5.28-3.52
		h-1.312v-1.248h1.408c2.112,0,4.448-0.863,4.448-2.977c0-1.151-0.768-2.688-3.456-2.688c-1.44,0-2.816,0.576-3.68,1.217
		l-0.48-1.152c0.864-0.704,2.656-1.376,4.384-1.376c3.68,0,4.8,2.112,4.8,3.808c0,1.633-1.12,3.04-3.2,3.712v0.063
		c2.368,0.449,3.968,2.145,3.968,4.16c0,2.209-1.792,4.769-6.208,4.769c-2.048,0-3.712-0.704-4.448-1.216L42.352,175.207z"/>
</g>
<g>
	<path d="M109.826,54.945v-4.512h-8.864V49.41l9.088-10.912h1.312v10.688h2.624v1.248h-2.624v4.512H109.826z M109.826,49.186v-7.2
		l0.032-1.6l-0.064-0.032c-0.32,0.512-0.672,1.024-0.992,1.472l-6.271,7.296v0.064H109.826z"/>
</g>
<g>
	<path d="M113.187,101.379h-6.816l-0.703,4.736c0.512-0.096,1.055-0.192,1.823-0.192c3.616,0,6.017,1.984,6.017,5.023
		c0,3.168-2.656,5.377-6.017,5.377c-2.08,0-3.616-0.673-4.384-1.152l0.544-1.217c0.735,0.48,2.144,1.057,3.903,1.057
		c2.496,0,4.353-1.792,4.353-3.744c0-2.271-1.312-4.064-4.991-4.064c-1.057,0-2.049,0.16-2.721,0.256l0.96-7.392h8.032V101.379z"/>
</g>
</svg>
