<?xml version="1.0" encoding="UTF-8" standalone="no"?>
<!-- Created with Inkscape (http://www.inkscape.org/) -->

<svg
   xmlns:dc="http://purl.org/dc/elements/1.1/"
   xmlns:cc="http://creativecommons.org/ns#"
   xmlns:rdf="http://www.w3.org/1999/02/22-rdf-syntax-ns#"
   xmlns:svg="http://www.w3.org/2000/svg"
   xmlns="http://www.w3.org/2000/svg"
   xmlns:sodipodi="http://sodipodi.sourceforge.net/DTD/sodipodi-0.dtd"
   xmlns:inkscape="http://www.inkscape.org/namespaces/inkscape"
   width="385.23883"
   height="270.81921"
   id="svg4290"
   version="1.1"
   inkscape:version="0.48.0 r9654"
   sodipodi:docname="4corner1a.svg">
  <defs
     id="defs4292" />
  <sodipodi:namedview
     id="base"
     pagecolor="#ffffff"
     bordercolor="#666666"
     borderopacity="1.0"
     inkscape:pageopacity="0.0"
     inkscape:pageshadow="2"
     inkscape:zoom="1.9769231"
     inkscape:cx="190.3495"
     inkscape:cy="154.8223"
     inkscape:document-units="px"
     inkscape:current-layer="layer1"
     showgrid="false"
     fit-margin-top="8"
     fit-margin-left="8"
     fit-margin-right="8"
     fit-margin-bottom="8"
     inkscape:window-width="1280"
     inkscape:window-height="738"
     inkscape:window-x="-8"
     inkscape:window-y="-8"
     inkscape:window-maximized="1" />
  <metadata
     id="metadata4295">
    <rdf:RDF>
      <cc:Work
         rdf:about="">
        <dc:format>image/svg+xml</dc:format>
        <dc:type
           rdf:resource="http://purl.org/dc/dcmitype/StillImage" />
        <dc:title></dc:title>
      </cc:Work>
    </rdf:RDF>
  </metadata>
  <g
     inkscape:label="Layer 1"
     inkscape:groupmode="layer"
     id="layer1"
     transform="translate(-28.724214,-326.53698)">
    <path
       style="font-size:24px;font-style:oblique;font-variant:normal;font-weight:normal;font-stretch:normal;line-height:125%;letter-spacing:0px;word-spacing:0px;fill:#000000;fill-opacity:1;stroke:#000000;stroke-width:1.28814185;stroke-opacity:1;font-family:Franklin Gothic Demi;-inkscape-font-specification:Franklin Gothic Demi Oblique"
       d="m 272.47421,337.31823 c -1.94734,0.62585 0.19082,2.71257 0.5625,3.78125 1.56887,4.20161 1.49426,8.84362 1.84375,13.3125 -5.01467,1.47204 -10.14548,2.36737 -15.39965,1.7979 -1.40424,-0.4081 -2.77998,0.97592 -1.78785,2.23335 1.75725,4.23385 0.77607,9.23424 0.75392,13.77407 -1.1629,13.54222 -4.08751,27.37574 -11.97267,38.72593 -0.46593,1.16951 -2.87568,2.92136 -1.71875,4.21875 3.25272,-0.57635 5.18785,-4.01297 7.27041,-6.32053 8.30504,-10.48277 10.34072,-24.27749 11.84919,-37.22458 0.42383,-3.80839 0.69221,-7.63181 0.9429,-11.45489 1.90656,0.008 4.10523,-0.79386 5.875,-0.5625 1.42145,2.3407 0.85446,5.51016 0.9375,8.21875 -2.38324,1.11614 -5.39182,1.49979 -7.25,3.4375 0.25131,2.04627 3.35886,1.08488 4.79708,1.18168 2.32564,-0.87083 2.84159,0.35425 3.06579,2.38957 0.37557,2.7006 2.75893,4.40127 5.41838,4.36625 4.95622,0.28003 10.50884,0.57024 14.84375,-2.0625 1.60661,-1.86076 -1.53833,-3.2091 -1.59375,-5.125 -0.61522,-1.88665 0.16844,-4.3728 -0.6875,-6 -1.60993,-0.11057 -1.84855,2.64786 -2.74485,3.66852 -1.07202,2.38236 -2.35947,5.20003 -5.33721,5.20974 -2.27479,0.3505 -5.87135,0.62697 -6.12158,-2.41912 -1.17674,-2.28048 2.29669,-2.19321 3.71259,-2.99337 1.81829,-0.97318 5.63547,-0.74656 5.8973,-3.27827 -0.85805,-2.26004 -4.16894,-2.11788 -6.125,-1.53125 -2.16206,1.10083 -4.29312,2.04894 -3.28125,-1.21875 0.0344,-1.87653 1.18537,-3.87254 0.125,-5.625 4.19987,-0.72399 8.30733,-2.62132 12.59375,-2.125 2.15761,0.90086 -0.21278,3.53599 -0.75,4.78125 -0.74976,0.83865 -1.03954,3.11273 0.65625,2.28125 3.52282,-2.00778 6.55844,-4.73654 10.6875,-5.46875 2.25549,-0.90704 0.68167,-3.40081 -0.78125,-4.25 -3.14979,-2.57725 -7.80444,-4.73396 -11.7193,-2.45605 -2.65834,0.92771 -5.36243,1.71988 -8.06195,2.51855 0.0988,-4.35488 -0.28106,-8.96918 0.375,-13.15625 -1.20592,-2.08165 -4.65222,-2.54447 -6.875,-2.625 z m -96.90625,6.25 c -2.43023,0.50091 -5.03635,0.75331 -7.40625,1.0625 -1.98284,1.43333 -2.76727,2.82052 0.15625,3.0625 2.92205,1.01563 6.09038,0.2143 9.03125,-0.4375 -1.00715,-0.99242 -0.58354,-3.13069 -1.78125,-3.6875 z m 180.3125,2.15625 c -1.88523,0.78066 0.37915,2.90562 0.46875,4.1875 1.67609,9.51133 0.48414,19.42907 -0.65625,29 0.12027,1.77594 0.94725,4.2356 2.75,4.8125 1.78597,-0.37493 0.44293,-3.86806 2.6875,-3.1875 6.67307,-0.64377 13.28976,-1.77278 19.9375,-2.625 -0.0988,-2.1194 -0.0424,-4.65331 -2.84375,-3.125 -3.12134,1.53959 -1.83211,-2.01781 -1.90326,-3.98816 -0.83363,-2.81213 1.75762,-2.88678 3.75468,-3.4408 1.23834,-0.45414 4.6337,-0.8216 3.55483,-2.82104 -1.68261,-2.11069 -4.83971,-1.18207 -7.15625,-0.9375 0.62523,-1.9347 -0.95038,-5.51273 1.75,-5.90625 1.94016,-0.99815 5.16515,-1.61055 5.46875,-4.15625 -0.96451,-2.18936 -4.11002,-0.99517 -5.875,-0.71875 -2.00517,0.75303 -0.12056,-2.24471 -0.71875,-3.40625 -0.65057,-1.51784 -1.89357,-3.52531 -3.79135,-2.45514 -2.75943,-0.14917 -3.12664,1.02468 -2.27283,3.28799 -0.17113,1.49812 1.28632,4.30408 -0.88674,4.54662 -2.00596,0.97143 -4.76402,0.79517 -6.39283,2.30803 0.10743,1.77732 2.95135,1.50229 4.27476,1.73253 2.64854,-0.44787 3.96359,0.1831 3.25649,3.12372 1.05497,3.19346 -1.66831,3.65534 -4.1272,4.27317 -1.302,0.80602 -3.75931,0.12469 -4.27905,1.71433 1.66276,2.13484 5.07122,1.65539 7.625,1.71875 1.44822,0.41963 0.88146,4.94968 0.39319,6.19076 -3.34152,0.76377 -6.87781,1.35204 -10.36194,1.59049 0.57624,-9.59323 1.27201,-19.34271 0.90625,-28.875 -1.43446,-1.29915 -2.78329,-3.03249 -4.8125,-2.84375 -0.23488,-0.0258 -0.53803,-0.0824 -0.75,0 z m -176.25,5.53125 c -3.07051,3.44859 -5.97753,7.03734 -8.84375,10.65625 -4.86091,0.62275 -9.69398,1.55775 -14.59375,1.8125 0.9431,2.38986 2.17086,4.20041 4.93218,2.94617 2.63421,-0.29924 5.37182,-0.80484 7.94282,-0.97742 1.57412,2.66009 1.34508,5.97107 1.5,8.96875 -3.32045,1.03019 -7.09821,1.12519 -10.15625,2.5625 -0.99848,1.59043 1.73412,2.60439 2.90625,2.8125 2.40983,0.36429 4.85083,0.0468 7.25,-0.25 0,2.625 0,5.25 0,7.875 -4.0262,0.93638 -8.36164,1.09372 -12.25,2.21875 -1.34159,1.53727 1.67217,2.64267 2.65625,3.28125 3.95803,1.86087 8.32386,-0.53226 12.42751,-0.78335 4.89262,-1.03286 9.93323,-1.65906 14.57249,-3.4979 1.64087,-1.52641 -1.33035,-3.00385 -2.625,-3.21875 -3.23146,-0.60174 -6.4102,0.91012 -9.625,1.125 0,-2.73958 0,-5.47917 0,-8.21875 3.4581,-0.98 7.53992,-1.15059 10.5,-3.28125 1.26584,-1.9119 -1.8976,-3.28608 -3.46875,-3.125 -2.38984,0.21746 -4.65849,1.11557 -7.03125,1.59375 -0.29792,-2.24713 0.68364,-4.50239 0.46875,-6.65625 -0.0179,-1.1643 -2.92754,-2.43177 -1.1875,-2.53125 2.67559,-0.42613 5.37001,-0.70588 8.0625,-1 -0.73879,-2.16205 -1.01121,-5.2618 -3.82537,-3.35284 -2.37136,0.88983 -3.3259,0.74473 -0.84916,-1.0744 2.15544,-2.00692 4.36422,-3.95708 6.64328,-5.82276 -1.72977,-0.57231 -3.82904,-2.15082 -5.40625,-2.0625 z m 156.125,3.8125 c -0.18639,6.44508 -2.61509,12.46045 -5.9375,17.9375 2.06694,0.6698 4.86443,3.12964 5.47243,-0.29596 2.18566,-4.2149 4.56695,-8.41921 7.05882,-12.39154 0.42331,-2.33136 -2.16963,-3.94067 -3.78125,-5.1875 -0.60895,-0.54343 -2.80528,-0.92998 -2.8125,-0.0625 z m -254.374996,1.21875 c -1.078024,0.30965 0.969668,2.30493 0.71875,3.46875 1.390972,6.07391 -1.071483,13.03894 2.59375,18.5 1.066387,1.31951 2.854374,1.62153 4.40625,1.90625 -0.295198,-1.83887 1.248781,-4.60173 -0.3125,-5.8125 -1.495042,-2.41949 -0.949031,-5.7285 -1.03125,-8.53125 -0.391034,-2.79431 2.187873,-5.72675 0.1875,-8.1875 -0.795614,-1.78066 -2.373977,-2.29424 -4.195847,-1.62401 -0.788884,0.0934 -1.577769,0.18684 -2.366653,0.28026 z m 170.718746,12.625 c -9.57394,1.69756 -19.10434,4.00431 -28.8125,4.625 -1.61971,0.7154 0.42975,1.993 1.3125,2.1875 2.43699,1.25264 5.09372,1.78428 7.66698,0.62666 1.90008,-0.42491 3.70288,-0.95978 5.61427,-1.15791 -0.84658,3.60707 -2.57978,7.34697 -6.25,8.65625 -1.83627,1.44837 -0.3488,5.34583 1.90625,5.25 2.86806,-1.1036 5.17801,-4.20736 8.65625,-3.4375 2.66721,0.48852 5.59729,-0.0614 8.375,0.0312 1.68942,-2.67877 -1.96225,-5.17401 -4.375,-5.15625 -1.87645,0.30419 -4.16664,1.86549 -5.90625,1.1875 -0.32541,-2.66401 4.62636,-3.72302 2.96875,-6.625 0.52629,-1.25726 4.56199,-0.54101 6.43028,-1.02784 2.35566,-0.56777 5.5589,0.54084 7.35097,-1.40966 0.54304,-2.35196 -2.91201,-4.24295 -4.9375,-3.75 z m 75.75,6.9375 c -3.46967,6.0093 -7.8732,11.34635 -12.1875,16.75 -0.68926,1.76275 1.82541,0.74912 2.4375,0.125 4.74423,-3.05271 8.90168,-7.44748 11.9375,-12.0625 -0.69476,-0.86682 -1.19881,-6.64091 -2.1875,-4.8125 z m 50.09375,5.5 c -1.91866,0.70427 0.11979,3.27991 0.59779,4.41366 1.42432,1.96498 2.55021,5.07367 5.18346,5.52384 2.50734,-1.33083 2.23752,-5.41784 0.0312,-7.03125 -1.58372,-1.41464 -3.67529,-2.76772 -5.8125,-2.90625 z m -10.84375,2.34375 c -1.79296,0.70761 -0.20943,3.23168 0.21875,4.4375 1.11051,1.82132 1.90529,4.85914 4.28125,5.4375 2.24456,-0.96548 2.78571,-4.33822 1.78125,-6.40625 -1.29752,-1.97604 -3.92779,-3.4424 -6.28125,-3.46875 z m -98.15625,0.28125 c -1.70958,1.06367 0.51831,3.35099 0.21875,4.84375 -0.20611,6.81791 -2.7759,13.75718 -6.84031,19.15849 -0.80544,1.70841 -3.3815,2.69863 -3.56594,4.49776 1.4507,0.82355 3.44148,-1.17707 4.93675,-1.7058 4.8008,-2.81335 7.34325,-8.29148 8.97276,-13.40101 0.90346,-3.01403 1.24085,-6.31492 1.62174,-9.36194 2.44341,0.73365 1.46334,-4.84401 -0.63397,-3.47046 -1.61887,0.25016 -3.19954,-0.51045 -4.70978,-0.56079 z m 87.25,1.3125 c -1.4642,1.48914 0.48011,3.84884 0.84783,5.49146 0.91144,1.49975 1.45369,4.78309 3.65217,4.53979 2.21747,-2.36141 1.41012,-6.58187 -1.25,-8.375 -0.9806,-0.62037 -2.01029,-1.92812 -3.25,-1.65625 z m -6.09375,2.375 c -1.78652,1.3527 -1.3676,4.22302 -2.23285,6.19769 -0.69431,2.26535 -2.29937,4.82241 -0.4859,7.02106 0.5733,1.70589 3.03649,2.38288 3.65625,0.34375 1.85584,-4.16164 2.6589,-9.68277 -0.3125,-13.46875 -0.17981,-0.13422 -0.41539,-0.17195 -0.625,-0.0937 z m -66.96875,11.71875 c -2.74505,-0.20351 -4.71867,0.41543 -3.83199,3.49358 -0.32641,3.44713 1.61694,6.35187 3.89449,8.75642 0.80541,-1.23592 5.15494,-2.78939 3.28125,-3.78125 -2.88325,-1.63992 -2.79243,-5.4354 -2.9375,-8.5 l -0.39882,0.0307 -0.007,5.7e-4 z m -46.65625,79.875 c -12.06955,3.1428 -24.43285,5.42302 -36.8277,7.25286 -2.1865,0.98246 -2.77623,-0.71696 -3.48554,-2.44955 -0.29146,-0.99078 -1.88006,-3.03912 -2.62426,-1.33456 -1.41104,4.30201 -2.59472,8.84514 -5.46875,12.375 -0.86394,2.38554 -1.0554,6.00954 1.1875,7.65625 3.12347,0.52181 4.89348,-3.25567 5.78125,-5.6875 0.7507,-2.14204 1.28527,-4.38035 1.75,-6.5625 8.21479,-0.72338 16.22288,-2.95094 24.39454,-4.06589 5.03342,-0.68512 10.15646,-2.00107 15.13671,-2.30911 1.98897,1.62749 -0.20499,4.33113 -0.78125,6.1875 -0.48906,1.89155 -2.64187,3.38908 -2.46875,5.34375 1.61229,0.90814 3.3254,-1.47489 4.90625,-1.78125 3.72742,-1.97476 7.82814,-2.91571 11.90625,-3.4375 1.83268,-1.22764 -0.58252,-3.40314 -1.53125,-4.4375 -3.24752,-3.04443 -7.09697,-6.91657 -11.875,-6.75 z m 93.75,12.125 c -3.43862,0.62916 -6.81671,1.76091 -10.28125,2.375 0.54285,1.61739 -1.1128,5.79235 0.86331,5.74674 4.71723,-0.96092 9.7362,-1.5124 13.94919,-4.02799 2.07633,-1.77389 -1.08877,-3.81579 -2.78125,-4 -0.57421,-0.12122 -1.16531,-0.15462 -1.75,-0.0937 z m -15.03125,3.40625 c -3.61194,1.24886 -7.53743,1.43845 -10.96875,2.875 -0.93364,1.68514 1.92072,2.29839 3.09375,2.6875 2.67232,0.74487 5.6162,0.59697 8.375,0.21875 -0.3652,-1.48793 0.71121,-5.52669 -0.5,-5.78125 z m -203.40625,1.03125 c -1.98511,0.219 -4.56607,0.48726 -5.96875,1.5 0.35277,1.84634 -1.21535,6.27158 2,4.28125 2.43243,-1.04667 5.84226,-1.27395 7.375,-3.5625 0.50199,-1.80836 -2.0445,-2.49674 -3.40625,-2.21875 z m 100.46875,1.0625 c -3.77867,1.36598 -7.92569,1.6891 -11.90625,1.8125 -1.99795,0.39873 -0.51361,2.60223 0.53125,3.125 1.83342,1.76239 4.72574,2.83345 6.90625,1.09375 2.25377,-1.00924 4.58357,-1.83454 6.875,-2.75 -0.81902,-0.98932 -1.34365,-2.78494 -2.40625,-3.28125 z m 63.5625,0.875 c -2.3514,0.61753 -0.37334,3.48087 0.40625,4.65625 1.88336,2.60134 4.42701,5.89198 7.875,5.96875 2.67117,-1.25174 2.2873,-5.60994 0.40625,-7.53125 -2.23558,-2.16202 -5.60227,-3.25042 -8.6875,-3.09375 z m -173.125,0.3125 c -5.758167,1.8382 -11.716964,3.19657 -17.468746,4.625 -1.755636,0.76965 0.535719,2.07153 1.5625,2 5.529099,0.80653 11.141361,-0.4776 16.499996,-1.71875 -0.37527,-1.18029 0.65482,-5.01877 -0.59375,-4.90625 z m 36.53125,1.40625 c -4.77395,0.57961 -9.30287,2.88862 -13.84375,3.96875 -1.14707,1.35572 1.61279,2.04929 2.625,2.15625 4.62382,0.33643 9.38328,-1.1205 13.40625,-3.1875 1.79346,-0.6762 1.14573,-3.20578 -0.74066,-2.92461 -0.4807,-0.0576 -0.96495,-0.0494 -1.44684,-0.0129 z m 106.3125,10.5 c -7.70902,1.0621 -15.37531,2.51185 -23.125,3.3125 0.68689,1.843 -0.22565,5.82661 2.81251,4.60878 9.77848,-0.87705 19.58647,-1.82849 29.40624,-1.54628 1.76105,0.0434 2.25059,-2.04636 1,-3.125 -2.43818,-2.82109 -6.55793,-3.30188 -10.09375,-3.25 z m -120.46875,1.5625 c -1.81953,0.33593 -2.90168,2.26709 -4.91586,2.35989 -1.92227,0.74983 -4.13049,0.34088 -6.11539,0.48386 -1.34346,1.33274 0.96059,3.2237 0.69452,4.80016 0.88194,3.18016 0.61886,6.88103 2.49298,9.63734 1.85364,0.57506 1.42188,-2.5719 3,-2.46875 2.8999,-0.99452 6.21449,-0.821 9.125,-1.6875 1.55262,-1.25121 -1.26491,-2.55443 -1.07111,-3.54527 0.89829,-2.35999 3.01292,-3.88424 4.03986,-6.11098 -0.31124,-2.37971 -3.71893,-2.59479 -5.5,-3.375 -0.57723,-0.10598 -1.16447,-0.19136 -1.75,-0.0937 z m 91.96875,2.40625 c -11.66266,1.58875 -23.36249,2.97652 -35.0625,4.1875 -1.16246,0.28355 -3.87095,-1.12548 -4.03125,0.71875 1.51613,3.59464 5.92721,5.15672 9.61443,4.12888 10.29969,-1.94889 20.69699,-3.34231 31.13557,-4.28513 -0.64449,-1.41668 -0.59267,-3.97106 -1.65625,-4.75 z m 94.9375,2.5625 c -0.8314,1.4612 -0.87598,3.96926 -1.89498,5.7478 -2.24038,4.18489 -5.43785,7.99032 -9.44877,10.53345 -2.24147,1.02931 -5.49684,1.71924 -5.75,4.65625 -0.35963,1.88951 -0.95657,5.01937 1.15625,6 2.50613,-0.20716 4.32312,-2.50203 6.75,-3.125 9.13786,-3.78616 18.98704,-4.85163 28.625,-6.8125 -0.5176,-2.8278 -2.1044,-3.90546 -4.87006,-2.91634 -5.81888,0.52589 -11.76193,1.41347 -17.50494,1.85384 1.86155,-3.56278 5.08533,-6.45583 7.78125,-9.46875 1.37558,-0.75917 2.46672,-2.28458 1.25,-3.71875 -1.13935,-1.60801 -2.43932,-3.99279 -4.79957,-2.89791 -0.43139,0.0493 -0.86279,0.0986 -1.29418,0.14791 z m -188.53125,-0.28125 c 1.82494,0.1043 0.71706,2.79612 0.96875,3.96875 0.63324,2.13618 -1.48391,2.3986 -3.03125,2.625 -3.08952,1.511 -2.44904,-1.44341 -2.61674,-3.63445 -1.13696,-2.74032 2.02196,-2.02962 3.67098,-2.75918 0.34979,-0.0895 0.62659,-0.1697 1.00826,-0.20012 z m -1.9375,10.25 c -1.8572,0.57937 -0.0855,3.15982 -1.34375,4.375 -2.96198,5.71913 -8.23788,10.04662 -12.875,14.3125 -0.14637,1.57396 2.15831,0.22377 2.9375,0.0625 4.2255,-1.65221 7.73851,-4.54745 11.15625,-7.46875 1.70181,1.82646 3.06746,5.20963 5.875,5.28125 2.36338,-1.28406 1.35048,-5.23545 -0.86583,-6.21921 -0.89109,-1.01518 -3.96246,-1.25614 -2.20667,-2.75704 0.73845,-1.62259 4.14868,-2.7614 2.5725,-4.83625 -1.44262,-1.25017 -3.31921,-2.62079 -5.25,-2.75 z"
       id="path3810"
       inkscape:connector-curvature="0" />
    <path
       inkscape:connector-curvature="0"
       id="path4522"
       d="m 81.482173,356.88217 -10.144118,1.08687"
       style="font-size:72px;font-style:normal;font-variant:normal;font-weight:normal;font-stretch:normal;text-align:center;line-height:125%;letter-spacing:0px;word-spacing:0px;text-anchor:middle;fill:#000000;fill-opacity:1;stroke:#000000;stroke-width:1.28814185;stroke-opacity:1;font-family:KaiTi;-inkscape-font-specification:KaiTi" />
    <g
       style="font-size:28px;font-style:normal;font-variant:normal;font-weight:normal;font-stretch:normal;line-height:125%;letter-spacing:0px;word-spacing:0px;fill:#000000;fill-opacity:1;stroke:#000000;stroke-opacity:1;font-family:DejaVu Sans;-inkscape-font-specification:DejaVu Sans"
       id="text3872"
       transform="matrix(1.2881419,0,0,1.2881419,24.28419,-576.7159)" />
    <g
       style="font-size:24px;font-style:normal;font-variant:normal;font-weight:normal;font-stretch:normal;line-height:125%;letter-spacing:0px;word-spacing:0px;fill:#000000;fill-opacity:1;stroke:#000000;stroke-width:1;stroke-miterlimit:4;stroke-opacity:1;stroke-dasharray:none;font-family:KaiTi;-inkscape-font-specification:KaiTi"
       id="text3096"
       transform="matrix(1.2881419,0,0,1.2881419,-353.37233,-437.5088)" />
    <path
       id="path4531"
       style="font-size:24px;font-style:oblique;font-variant:normal;font-weight:normal;font-stretch:normal;line-height:125%;letter-spacing:0px;word-spacing:0px;fill:#9de75b;fill-opacity:1;stroke:#000000;stroke-width:1.28814185;stroke-opacity:1;font-family:Franklin Gothic Demi;-inkscape-font-specification:Franklin Gothic Demi Oblique"
       d="m 334.92906,440.6716 -0.6642,3.9399 -15.45771,0 0.66421,-3.9399 5.41925,0 1.96241,-11.74423 c -0.98624,1.00637 -2.55114,1.50956 -4.69467,1.50954 -0.20129,2e-5 -0.52835,-0.005 -0.98121,-0.0151 l 0.6491,-3.81914 c 3.28073,2e-5 5.61045,-1.03653 6.98917,-3.10966 l 3.48705,0 -2.88323,17.17859 z m -93.28462,-11.12532 -4.09085,0.34719 c -0.23148,-1.92212 -1.18249,-2.88321 -2.85305,-2.88322 -2.5159,1e-5 -4.04054,2.3851 -4.5739,7.15523 1.05667,-1.8215 2.56621,-2.73226 4.52863,-2.73228 1.77118,2e-5 3.25807,0.6139 4.46069,1.84165 1.20258,1.22776 1.80389,2.72725 1.8039,4.49843 -1e-5,1.87184 -0.66924,3.53484 -2.00768,4.98904 -1.33849,1.45418 -3.19521,2.18129 -5.57021,2.18129 -2.38509,0 -4.31226,-0.79503 -5.78154,-2.38509 -1.4693,-1.59004 -2.20394,-3.79396 -2.20394,-6.61178 0,-3.32098 0.83527,-6.21175 2.50584,-8.67232 1.67055,-2.46053 3.97511,-3.69081 6.9137,-3.69083 1.90201,2e-5 3.46942,0.53843 4.70222,1.61521 1.23278,1.07682 1.95483,2.52598 2.16619,4.34748 z m -8.37796,11.8499 c 0.89566,0 1.64289,-0.31449 2.24168,-0.94346 0.59876,-0.62897 0.89815,-1.43155 0.89817,-2.40772 -2e-5,-0.93591 -0.29437,-1.70074 -0.88308,-2.2945 -0.58873,-0.59374 -1.3108,-0.89062 -2.16619,-0.89063 -0.90574,10e-6 -1.67811,0.32204 -2.31714,0.9661 -0.63905,0.64409 -0.95858,1.44917 -0.95856,2.41527 -2e-5,1.01643 0.33461,1.79636 1.00383,2.33979 0.66923,0.54343 1.39632,0.81515 2.18129,0.81515 z m -87.35212,-0.67929 -0.57362,3.89461 -15.29165,0 0.58872,-4.48334 c 5.79662,-3.52224 9.23586,-5.82933 10.31771,-6.92124 1.08183,-1.09189 1.62275,-2.13096 1.62276,-3.1172 -1e-5,-0.78495 -0.26922,-1.41644 -0.8076,-1.89448 -0.53842,-0.47801 -1.19004,-0.71701 -1.95486,-0.71703 -1.88191,2e-5 -3.10966,1.26299 -3.68329,3.78895 l -4.24181,-1.0114 c 0.54344,-2.07308 1.53973,-3.71596 2.9889,-4.92865 1.44915,-1.21264 3.15996,-1.81897 5.13244,-1.81899 2.14353,2e-5 3.92227,0.62145 5.33623,1.86428 1.41391,1.24287 2.12088,2.80022 2.1209,4.67203 -2e-5,1.44917 -0.40005,2.71971 -1.20009,3.81159 -0.80006,1.09192 -2.00015,2.10834 -3.60025,3.04927 -1.60012,0.94097 -3.99023,2.21149 -7.17031,3.8116 z m -92.258126,-11.17056 -4.090855,0.34719 c -0.231479,-1.92212 -1.182489,-2.8832 -2.853041,-2.88322 -2.515909,2e-5 -4.040541,2.3851 -4.573909,7.15523 1.056676,-1.8215 2.566211,-2.73226 4.528631,-2.73228 1.771182,2e-5 3.258071,0.61391 4.460693,1.84165 1.202584,1.22776 1.803888,2.72725 1.803901,4.49843 -1.3e-5,1.87184 -0.669254,3.53485 -2.007685,4.98904 -1.338482,1.45418 -3.19521,2.18129 -5.570209,2.18129 -2.385084,0 -4.312261,-0.79503 -5.781541,-2.38509 -1.469293,-1.59004 -2.203934,-3.79396 -2.203934,-6.61178 0,-3.32097 0.83527,-6.21175 2.505836,-8.67232 1.670552,-2.46053 3.975115,-3.69081 6.913702,-3.69083 1.902006,2e-5 3.469417,0.53843 4.70222,1.61521 1.232778,1.07683 1.954833,2.52598 2.166191,4.34748 z m -8.377959,11.8499 c 0.895658,0 1.642884,-0.31448 2.241676,-0.94346 0.598767,-0.62897 0.898157,-1.43155 0.89817,-2.40772 -1.3e-5,-0.93591 -0.294366,-1.70074 -0.883073,-2.2945 -0.588732,-0.59374 -1.3108,-0.89062 -2.166191,-0.89063 -0.905744,1e-5 -1.678126,0.32205 -2.317148,0.9661 -0.639047,0.64409 -0.958571,1.44918 -0.958558,2.41527 -1.3e-5,1.01643 0.334608,1.79637 1.003836,2.33979 0.669229,0.54343 1.39632,0.81515 2.181288,0.81515 z m 44.178192,133.62938 1.403868,-8.33267 -6.823133,8.33267 z m 7.623172,-0.15096 -0.618901,3.66819 -3.094567,0 -0.800053,4.73997 -4.634296,0 0.800065,-4.73997 -8.619486,0 0.603817,-3.78895 9.872397,-12.34805 5.479639,0 -2.08317,12.46881 z m 76.755141,2.6568 4.03048,-0.76986 c 0.62394,2.19386 1.94228,3.2908 3.955,3.29079 1.0466,10e-6 1.86931,-0.27422 2.4681,-0.8227 0.59877,-0.54846 0.89816,-1.24034 0.89817,-2.07562 -1e-5,-0.66419 -0.18618,-1.23027 -0.55852,-1.69823 -0.37236,-0.46795 -0.80007,-0.76483 -1.28312,-0.89063 -0.48305,-0.12585 -1.21267,-0.18868 -2.18882,-0.1887 l -1.52465,0 0.48306,-3.50213 2.20393,0 c 2.4857,10e-6 3.72855,-0.87049 3.72856,-2.6115 -10e-6,-0.74469 -0.27424,-1.34096 -0.82269,-1.78881 -0.54848,-0.44782 -1.23532,-0.67172 -2.06053,-0.67175 -1.59005,3e-5 -2.74234,0.82523 -3.45684,2.47565 l -4.06068,-1.13216 c 1.44916,-3.31091 4.02545,-4.96636 7.72885,-4.96639 2.17373,3e-5 3.95247,0.51327 5.33624,1.53974 1.38373,1.02651 2.0756,2.40018 2.07562,4.12104 -2e-5,1.18752 -0.35979,2.24169 -1.07932,3.16249 -0.71957,0.92084 -1.72341,1.49698 -3.01154,1.72843 1.09692,0.40256 1.92968,1.03908 2.49829,1.90957 0.56857,0.87051 0.85288,1.80391 0.85289,2.8002 -1e-5,1.72088 -0.71202,3.20778 -2.136,4.46069 -1.42401,1.25293 -3.35371,1.87937 -5.78909,1.87937 -2.23412,0 -4.08583,-0.58368 -5.55511,-1.75106 -1.46929,-1.16738 -2.38005,-2.66685 -2.73228,-4.49843 z m 93.99411,0 4.03048,-0.76986 c 0.62393,2.19386 1.94227,3.2908 3.95499,3.29079 1.0466,10e-6 1.86932,-0.27422 2.46811,-0.8227 0.59876,-0.54846 0.89815,-1.24034 0.89817,-2.07562 -2e-5,-0.66419 -0.18619,-1.23027 -0.55853,-1.69823 -0.37236,-0.46795 -0.80006,-0.76483 -1.28312,-0.89063 -0.48305,-0.12585 -1.21267,-0.18868 -2.18882,-0.1887 l -1.52464,0 0.48305,-3.50213 2.20393,0 c 2.4857,10e-6 3.72855,-0.87049 3.72857,-2.6115 -2e-5,-0.74469 -0.27425,-1.34096 -0.8227,-1.78881 -0.54848,-0.44782 -1.23532,-0.67172 -2.06052,-0.67175 -1.59006,3e-5 -2.74234,0.82523 -3.45685,2.47565 l -4.06067,-1.13216 c 1.44916,-3.31091 4.02544,-4.96636 7.72885,-4.96639 2.17372,3e-5 3.95247,0.51327 5.33623,1.53974 1.38373,1.02651 2.07561,2.40018 2.07562,4.12104 -1e-5,1.18752 -0.35979,2.24169 -1.07932,3.16249 -0.71957,0.92084 -1.72341,1.49698 -3.01153,1.72843 1.09691,0.40256 1.92967,1.03908 2.49828,1.90957 0.56858,0.87051 0.85288,1.80391 0.85289,2.8002 -10e-6,1.72088 -0.71202,3.20778 -2.13599,4.46069 -1.42402,1.25293 -3.35372,1.87937 -5.78909,1.87937 -2.23413,0 -4.08583,-0.58368 -5.55512,-1.75106 -1.46929,-1.16738 -2.38004,-2.66685 -2.73227,-4.49843 z" />
    <path
       style="font-size:24px;font-style:oblique;font-variant:normal;font-weight:normal;font-stretch:normal;line-height:125%;letter-spacing:0px;word-spacing:0px;fill:#f61650;fill-opacity:1;stroke:#000000;stroke-width:1.28814185;stroke-opacity:1;font-family:Franklin Gothic Demi;-inkscape-font-specification:Franklin Gothic Demi Oblique"
       d="m 66.96875,357.9375 c -0.897258,0.31358 0.364474,2.1361 -0.0625,3.21875 -0.734938,8.31103 -4.308615,16.39414 -10.252237,22.12295 -0.813336,0.50872 -1.505473,2.50337 0.06474,2.12705 7.003078,-2.65525 12.048727,-8.98135 13.956881,-16.16267 0.772174,-2.86301 2.591728,-5.39193 3.168119,-8.18108 -0.335092,-2.05542 -2.17517,-4.47512 -4.51813,-3.39629 -0.785624,0.0904 -1.571247,0.18086 -2.35687,0.27129 z m 84.59375,5.40625 c -2.04346,1.15216 0.68849,3.50247 0.46559,5.11432 0.92056,9.545 -0.0388,19.36859 -2.18434,28.63568 -1.37818,5.97027 -4.81965,11.11809 -9.28125,15.28125 -1.12765,1.04877 0.20725,2.17517 1.3125,1.34375 6.08585,-2.23273 11.14928,-7.16232 12.48527,-13.60837 3.2658,-10.84749 3.76848,-22.39597 4.26473,-33.64163 -0.68835,-2.49797 -2.33966,-3.13312 -4.73169,-2.94002 -0.77463,-0.0594 -1.55098,-0.31946 -2.33081,-0.18498 z m 192.03125,6.75 c -2.54395,0.20095 -4.04362,2.87739 -6.665,3.20662 -3.01872,1.66203 -5.69072,-1.33913 -8.71,-1.33162 -2.37693,0.77609 -0.383,3.81507 -0.0453,5.39442 2.16698,5.53357 2.2195,11.59887 4.54526,17.01183 1.30285,1.52309 2.504,-1.00108 2.53125,-2.15625 0.003,-1.93053 0.24098,-3.3409 2.46875,-3.21875 3.36419,-1.04079 7.0017,-1.25263 10.21875,-2.4375 1.39871,-1.82841 -2.57423,-2.9026 -1.15625,-4.6875 0.75893,-2.80734 1.89288,-5.3293 3.8125,-7.40625 0.65903,-2.22031 -2.51399,-3.08354 -4.03125,-3.78125 -0.99876,-0.33867 -1.86799,-0.69111 -2.96875,-0.59375 z m -2.75,5.4375 c 2.21484,-0.33751 1.24027,2.86367 1.35923,4.10533 -0.41822,1.8233 0.83832,4.93249 -1.85923,5.11342 -1.59378,0.14196 -4.83876,2.52666 -5.49173,1.01549 -0.58638,-2.84533 -0.99751,-5.73912 -1.16452,-8.64049 2.39285,-0.54014 4.89728,-1.10557 7.15625,-1.59375 z m -97.6875,9.5625 c -2.64866,-0.0449 -0.35344,0.22618 0.34375,1.28125 -0.25449,5.14337 -2.26152,10.26664 -4.4375,14.84375 -1.88714,3.93171 -6.78535,3.02671 -10.2409,2.29609 -1.14018,-0.59059 -2.7323,0.64296 -1.22785,1.42266 2.68292,1.5748 4.2845,4.24157 6.25,6.5625 2.58375,2.38137 5.75845,-0.80794 7.3125,-2.90625 4.53353,-5.46386 5.98105,-12.61202 7.5625,-19.28125 0.36762,-1.68462 1.76199,-2.81998 2.1875,-4.4375 -2.58367,0.0368 -5.16674,0.15177 -7.75,0.21875 z M 106.125,501.46875 c -1.7812,0.96335 -5.2212,0.18186 -5.69042,2.43533 -4.072866,10.64572 -10.715233,19.92218 -18.18458,28.40842 -0.936902,0.58733 -1.167639,2.59888 0.34375,1.96875 7.346261,-3.58816 12.265559,-10.81733 17.016686,-17.25232 0.922474,-0.76302 3.055604,-5.93488 2.692314,-2.50405 -0.38383,8.31744 -0.66644,16.87411 -2.980615,24.80911 -0.267558,3.21761 0.574323,6.88459 2.802865,9.22851 1.88249,0.52267 1.97455,-2.52894 2.5,-3.6875 1.95308,-8.46907 1.16719,-17.39097 1.33845,-26.05621 0.11454,-1.92733 -0.82874,-5.74004 1.6303,-3.03754 1.37526,1.29728 4.74183,3.12524 5.59375,0.375 0.25786,-3.54241 -3.97863,-4.97226 -6.6628,-5.97881 -0.31425,-2.5612 0.28405,-5.96694 0.1003,-8.83369 l -0.38806,0.097 -0.11194,0.028 z m 105.9375,5.0625 c -1.61361,0.86654 0.9916,2.26257 1.53125,3.0625 4.91079,5.658 5.27215,13.64103 5.21875,20.875 -0.46769,4.08539 0.32946,8.98856 -2.625,12.21875 -4.07061,1.86624 -8.6006,-0.92966 -12.78125,-0.75 -1.4753,0.85655 0.98233,2.13885 1.71875,2.625 3.79572,1.9108 7.21194,4.92457 8.90625,8.9375 2.07499,2.41035 5.07778,-0.51228 6.5,-2.25 5.27951,-6.40708 4.74075,-15.36792 4.51729,-23.23622 -0.38513,-4.982 -0.53898,-10.2115 -2.09524,-14.9318 -1.85684,-2.57647 -3.54866,-5.91341 -7.17205,-6.01948 -1.22064,-0.2798 -2.44927,-0.67768 -3.71875,-0.53125 z m 79.9375,3.75 c -2.92073,2.62113 -4.68547,6.53729 -7.15249,9.61974 -2.80104,3.67672 -5.31225,8.03461 -9.72251,9.78651 -1.99375,2.63822 0.58768,5.94518 1.84375,8.375 1.05212,1.21204 2.51003,4.34707 4.46875,3.03125 2.02964,-2.7762 1.47762,-6.56606 2.91951,-9.70312 2.11587,-7.0203 5.84038,-13.44786 8.23674,-20.32813 0.071,-0.3167 -0.17949,-1.06387 -0.59375,-0.78125 z"
       id="path4121"
       inkscape:connector-curvature="0" />
    <path
       style="font-size:24px;font-style:oblique;font-variant:normal;font-weight:normal;font-stretch:normal;line-height:125%;letter-spacing:0px;word-spacing:0px;fill:#9de75b;fill-opacity:1;stroke:#000000;stroke-width:1.28814185;stroke-opacity:1;font-family:Franklin Gothic Demi;-inkscape-font-specification:Franklin Gothic Demi Oblique"
       d="m 165.125,334.8125 c -2.32955,0.74925 -0.63884,4.0015 -1.69464,5.65879 -2.48016,5.99146 -7.21332,10.75218 -11.63359,15.30365 -1.93305,2.18925 -5.09731,3.67795 -6.67177,6.19381 0.63503,1.37527 2.64094,-0.38008 3.67157,-0.64502 9.86817,-4.57182 17.05024,-13.20901 24.35968,-20.91748 0.94412,-2.49791 -2.70672,-3.58059 -4.29864,-4.57822 -1.21099,-0.44006 -2.42036,-1.21232 -3.73261,-1.01553 z m 83.625,11.28125 c -6.0207,2.08025 -12.60057,2.91729 -18.96875,2.875 -1.47821,1.5854 1.32865,3.37176 1.59375,5.03125 1.97527,3.88744 1.91883,8.70127 4.40625,12.28125 1.81919,0.86494 1.8981,-2.44174 2.89192,-2.95498 3.71176,-0.88316 7.59793,-1.14332 11.29558,-1.82627 1.76473,-0.67488 0.27622,-2.57822 0.2452,-3.55772 0.73972,-2.90159 3.46883,-4.37251 4.91105,-6.78603 0.53204,-2.44151 -2.53149,-3.84697 -4.28125,-4.75 -0.68262,-0.22041 -1.37092,-0.4306 -2.09375,-0.3125 z m 98.15625,1.78125 c -5.84085,1.07405 -11.51571,3.28329 -17.3125,4.6875 -1.62806,0.39118 -0.92441,2.23397 0.46875,2.28125 6.29035,1.81064 12.6609,-0.51618 18.65625,-2.375 1.44802,-0.36922 3.88817,-2.15923 2.09375,-3.59375 -1.08363,-0.86367 -2.53887,-1.16879 -3.90625,-1 z M 104.5,348.6875 c -2.88497,0.56293 -5.715471,2.03683 -8.756919,2.23082 -14.543086,2.32271 -29.201793,4.06849 -43.892807,5.09648 -3.218453,0.31826 -6.610762,-1.85666 -9.694024,-0.67105 -1.004615,1.65989 1.556157,3.08664 1.96875,4.6875 3.44491,6.7584 3.628464,14.53318 5.231623,21.87065 1.28457,6.17426 1.564815,12.74545 4.018377,18.5356 1.456431,1.27116 2.345076,-1.50842 2.6875,-2.5625 0.58271,-2.31647 4.151053,-0.75313 6.034423,-1.41169 10.475637,-0.43616 20.940022,-2.18803 31.434327,-1.52581 2.64875,0.17207 4.91559,2.33519 4.896798,5.13405 0.891293,2.11779 0.514526,5.29829 2.509452,6.67845 2.33331,0.32138 3.35619,-2.77957 4.47402,-4.35049 4.64557,-8.44013 4.97338,-18.47338 6.77668,-27.91949 1.0681,-5.63117 1.59978,-11.68601 5.09305,-16.41752 1.10356,-3.24772 -2.83262,-4.92034 -4.875,-6.46875 -2.43225,-1.39396 -4.93737,-3.30516 -7.90625,-2.90625 z m 140.96875,2.25 c 1.78788,0.0326 0.73606,2.72214 0.77153,3.82453 -0.19965,2.36715 -0.27692,4.90554 -3.3917,4.2881 -2.1893,0.0168 -5.87251,1.97252 -5.18602,-1.74302 0.0169,-2.25392 -2.03007,-6.06568 1.71059,-5.50882 2.02966,-0.30073 4.05639,-0.63529 6.0956,-0.86079 z m -144.375,4 c 2.31662,0.0528 5.5234,0.94254 5.3978,3.80258 0.59542,8.19106 -0.97812,16.46406 -2.7103,24.38492 -1.01502,2.9021 -1.40929,6.64547 -4.03125,8.53125 -1.401125,-0.0432 -2.32201,-1.96264 -3.90625,-2.09375 -5.266237,-1.34502 -10.765565,0.38432 -16.090008,0.65835 -7.886619,0.93507 -15.770973,1.89409 -23.659992,2.8104 -1.297989,-10.96827 -2.631429,-21.9317 -3.875,-32.90625 14.754324,-1.37125 29.500024,-2.86833 44.169884,-4.96533 1.560468,-0.1547 3.136023,-0.29854 4.705116,-0.22217 z M 211.75,471.125 c -1.711,-0.34923 -3.02031,1.61663 -1.65625,2.90625 2.76006,3.0626 6.158,5.75757 9.84375,7.53125 2.5095,0.83692 3.02465,-2.67348 2.46875,-4.375 -0.37208,-5.26317 -6.51388,-5.95665 -10.65625,-6.0625 z m -110.09375,1.125 c -1.734425,0.76515 0.36496,2.94331 0.21875,4.21875 1.16434,8.86368 0.45395,17.889 0.59375,26.71875 2.13898,-0.60245 5.21008,-0.44675 4.15625,-3.53125 0.32336,-6.99621 0.0373,-14.25546 1.89498,-20.9978 1.10927,-1.84363 0.0619,-4.14726 -2.06525,-4.58734 -1.52155,-0.64534 -3.11613,-1.82092 -4.79848,-1.82111 z m 184.875,8.59375 c -2.50948,0.35655 -1.39366,3.42907 -0.34375,4.75 2.05343,2.76765 4.69151,5.42158 7.71875,7 2.46026,0.65376 2.68478,-2.86579 2.40625,-4.59375 -0.77894,-4.27845 -5.60876,-7.44558 -9.78125,-7.15625 z"
       id="path4117"
       inkscape:connector-curvature="0" />
    <path
       id="path4630"
       style="font-size:24px;font-style:oblique;font-variant:normal;font-weight:normal;font-stretch:normal;line-height:125%;letter-spacing:0px;word-spacing:0px;fill:#fd9345;fill-opacity:1;stroke:#000000;stroke-width:1.28814185;stroke-opacity:1;font-family:Franklin Gothic Demi;-inkscape-font-specification:Franklin Gothic Demi Oblique"
       d="m 166.02146,424.00627 -0.3472,3.3059 c -2.04293,1.79132 -3.92986,4.24433 -5.66077,7.35901 -1.73096,3.11469 -2.74738,6.42812 -3.04928,9.94032 l -5.44945,0 c 0.3019,-2.33475 1.09693,-4.80285 2.38508,-7.40429 1.28814,-2.60144 2.74483,-4.73493 4.37012,-6.40046 1.62526,-1.66551 2.67942,-2.62407 3.16249,-2.87568 l -10.65736,0 0.70948,-3.9248 z m 93.02799,16.66533 -0.6642,3.9399 -15.4577,0 0.6642,-3.9399 5.41925,0 1.96241,-11.74423 c -0.98624,1.00637 -2.55114,1.50956 -4.69467,1.50954 -0.20129,2e-5 -0.52835,-0.005 -0.98121,-0.0151 l 0.6491,-3.81914 c 3.28073,2e-5 5.61045,-1.03653 6.98917,-3.10966 l 3.48705,0 -2.88323,17.17859 z m 93.99411,0 -0.66421,3.9399 -15.4577,0 0.6642,-3.9399 5.41926,0 1.9624,-11.74423 c -0.98624,1.00637 -2.55114,1.50956 -4.69467,1.50954 -0.20128,2e-5 -0.52834,-0.005 -0.9812,-0.0151 l 0.64909,-3.81914 c 3.28073,2e-5 5.61045,-1.03653 6.98918,-3.10966 l 3.48705,0 -2.88324,17.17859 z M 105.50289,574.3765 c -0.94599,0.19123 -1.71335,0.59628 -2.30205,1.21519 -0.58873,0.61892 -0.88309,1.2806 -0.88309,1.98505 0,0.8554 0.38745,1.54728 1.16234,2.07562 0.7749,0.52833 1.7863,0.7925 3.03418,0.7925 1.10699,0 2.0102,-0.22139 2.70964,-0.66419 0.69941,-0.4428 1.04911,-1.06675 1.04912,-1.87184 -1e-5,-0.7145 -0.36985,-1.32587 -1.10951,-1.83409 -0.73968,-0.5082 -1.9599,-1.07429 -3.66063,-1.69824 z m 3.68327,-3.41155 c 1.66048,-0.70445 2.49074,-1.70577 2.49075,-3.004 -1e-5,-0.78494 -0.31198,-1.44411 -0.93592,-1.97749 -0.62395,-0.53335 -1.48943,-0.80004 -2.59641,-0.80006 -1.01643,2e-5 -1.82907,0.2189 -2.43791,0.65665 -0.60885,0.43779 -0.91328,0.9938 -0.91326,1.66804 -2e-5,1.39886 1.46424,2.55114 4.39275,3.45686 z m -5.8872,2.11335 c -1.80139,-1.09692 -2.70209,-2.54608 -2.70209,-4.34748 0,-1.61016 0.73717,-3.05428 2.21148,-4.33238 1.47432,-1.27805 3.43924,-1.9171 5.89476,-1.91711 2.0429,1e-5 3.69082,0.44029 4.94375,1.32084 1.25291,0.88059 1.87936,2.03035 1.87938,3.4493 -2e-5,2.16369 -1.44918,3.79903 -4.34748,4.90602 2.30455,1.06675 3.45684,2.64673 3.45685,4.73995 -1e-5,1.85171 -0.77995,3.39648 -2.3398,4.63429 -1.55986,1.23783 -3.56754,1.85674 -6.02306,1.85674 -2.30457,0 -4.19401,-0.4428 -5.66833,-1.32839 -1.474317,-0.8856 -2.211469,-2.13852 -2.211469,-3.75876 0,-1.20764 0.450334,-2.30205 1.351029,-3.28326 0.90069,-0.98119 2.08568,-1.62777 3.55498,-1.93976 z m 192.26021,1.94731 1.40387,-8.33267 -6.82314,8.33267 z m 7.62317,-0.15096 -0.6189,3.66819 -3.09457,0 -0.80005,4.73997 -4.6343,0 0.80007,-4.73997 -8.61949,0 0.60382,-3.78895 9.8724,-12.34805 5.47964,0 -2.08317,12.46881 z" />
    <path
       style="font-size:24px;font-style:oblique;font-variant:normal;font-weight:normal;font-stretch:normal;line-height:125%;letter-spacing:0px;word-spacing:0px;fill:#fd9345;fill-opacity:1;stroke:#000000;stroke-width:1.28814185;stroke-opacity:1;font-family:Franklin Gothic Demi;-inkscape-font-specification:Franklin Gothic Demi Oblique"
       d="m 386.0625,340.40625 c -8.56685,0.90719 -16.65929,5.00041 -25.28125,5.75 -1.84168,-0.0121 -5.17217,-1.12128 -2.15601,1.00463 1.46428,2.1709 3.62515,2.45742 6.01464,1.85424 8.03436,-0.89266 16.12161,-2.29887 23.73512,-4.85887 1.47599,-0.2736 2.61603,-2.38502 0.9375,-3.1875 -0.85971,-0.72976 -2.16584,-0.60326 -3.25,-0.5625 z M 186.09375,341 c -3.64181,1.10653 -7.29954,2.36819 -11.125,2.625 1.19954,1.19853 0.47167,4.63837 2.875,3.53125 1.23012,-0.19688 3.48058,-1.00555 4.21875,0.375 -0.39991,1.59945 -1.61187,3.09746 -2.96875,4.03125 2.09844,0.35466 4.58101,3.40488 6.37019,1.40121 2.85208,-2.41849 5.85299,-4.50935 9.47356,-5.55746 1.77387,-0.56126 1.5662,-2.74514 -0.0312,-3.375 -2.66049,-1.58452 -5.59616,-3.42432 -8.8125,-3.03125 z M 286.25,341.6875 c -2.74274,0.47541 -5.39542,1.4801 -8.09375,2.1875 -0.64631,2.85782 0.33559,4.03252 3.22693,3.08574 2.94713,-0.48857 6.44012,-0.0887 8.89807,-1.89824 0.99312,-1.96743 -2.48038,-3.57104 -4.03125,-3.375 z m 27.28125,129.65625 c -2.2275,0.524 -0.67928,3.1249 -0.0625,4.375 2.06224,6.45901 1.04291,13.50913 1.40625,20.2375 0,5.55625 0,11.1125 0,16.66875 1.82796,-0.66535 6.0176,0.9283 5.53545,-1.98073 0.66893,-10.03068 -0.39174,-20.35275 1.68479,-30.17999 0.69953,-1.69043 2.05945,-3.71569 0.46726,-5.37053 -2.31555,-2.20176 -5.7551,-3.76978 -9.03125,-3.75 z M 129.5,472.1875 c -1.93484,1.29099 0.59597,3.6469 0.125,5.46875 -0.45822,5.2104 -3.89735,9.632 -5.83078,14.29514 -3.47627,6.92916 -7.87169,13.49537 -12.98172,19.23611 -0.6726,1.74667 1.84385,0.84164 2.53125,0.21875 9.25518,-5.98894 14.15749,-16.41737 19.37216,-25.78983 0.94327,-2.95709 2.8613,1.70906 4.23875,2.61878 5.15506,5.64282 10.27726,11.50634 15.92034,16.60855 4.7942,2.04739 10.41234,1.08747 15.5625,0.84375 1.32683,0.21956 2.10829,-1.41395 0.59375,-1.8125 -6.35962,-2.16095 -12.48792,-4.95941 -17.9375,-8.9375 -5.80136,-4.03187 -11.16014,-8.66392 -16.5,-13.28125 0.38754,-2.0087 2.75898,-3.43037 2.34375,-5.5 -1.46728,-2.28575 -4.45679,-3.42128 -7,-4 -0.14582,0.0103 -0.29517,-0.0213 -0.4375,0.0312 z"
       id="path4119"
       inkscape:connector-curvature="0" />
    <path
       id="path4568"
       style="font-size:24px;font-style:oblique;font-variant:normal;font-weight:normal;font-stretch:normal;line-height:125%;letter-spacing:0px;word-spacing:0px;fill:#f61650;fill-opacity:1;stroke:#000000;stroke-width:1.28814184999999990;stroke-opacity:1;font-family:Franklin Gothic Demi;-inkscape-font-specification:Franklin Gothic Demi Oblique"
       d="m 371.86753,429.54628 -4.09085,0.34719 c -0.23148,-1.92212 -1.18249,-2.88321 -2.85304,-2.88322 -2.51591,1e-5 -4.04054,2.3851 -4.57391,7.15523 1.05668,-1.8215 2.56621,-2.73226 4.52863,-2.73228 1.77118,2e-5 3.25807,0.6139 4.46069,1.84165 1.20259,1.22776 1.80389,2.72725 1.8039,4.49843 -10e-6,1.87184 -0.66924,3.53484 -2.00768,4.98904 -1.33848,1.45418 -3.19521,2.18129 -5.57021,2.18129 -2.38508,0 -4.31226,-0.79503 -5.78154,-2.38509 -1.46929,-1.59004 -2.20393,-3.79396 -2.20393,-6.61178 0,-3.32098 0.83527,-6.21175 2.50583,-8.67232 1.67055,-2.46053 3.97512,-3.69081 6.9137,-3.69083 1.90201,2e-5 3.46942,0.53843 4.70222,1.61521 1.23278,1.07682 1.95484,2.52598 2.16619,4.34748 z m -8.37795,11.8499 c 0.89565,0 1.64288,-0.31449 2.24167,-0.94346 0.59877,-0.62897 0.89816,-1.43155 0.89817,-2.40772 -10e-6,-0.93591 -0.29436,-1.70074 -0.88307,-2.2945 -0.58873,-0.59374 -1.3108,-0.89062 -2.16619,-0.89063 -0.90575,10e-6 -1.67812,0.32204 -2.31715,0.9661 -0.63905,0.64409 -0.95857,1.44917 -0.95856,2.41527 -10e-6,1.01643 0.33461,1.79636 1.00384,2.33979 0.66923,0.54343 1.39632,0.81515 2.18129,0.81515 z m -87.35213,-0.67924 -0.57362,3.89461 -15.29165,0 0.58872,-4.48334 c 5.79663,-3.52224 9.23586,-5.82933 10.31771,-6.92124 1.08183,-1.09189 1.62275,-2.13096 1.62276,-3.1172 -1e-5,-0.78495 -0.26921,-1.41644 -0.8076,-1.89448 -0.53842,-0.478 -1.19004,-0.71701 -1.95486,-0.71703 -1.88191,2e-5 -3.10966,1.263 -3.68328,3.78895 l -4.24182,-1.0114 c 0.54345,-2.07308 1.53973,-3.71596 2.98891,-4.92865 1.44914,-1.21264 3.15996,-1.81897 5.13243,-1.81899 2.14353,2e-5 3.92228,0.62145 5.33623,1.86429 1.41392,1.24286 2.12089,2.80021 2.1209,4.67202 -10e-6,1.44917 -0.40005,2.71971 -1.20008,3.81159 -0.80007,1.09192 -2.00015,2.10834 -3.60026,3.04927 -1.60012,0.94097 -3.99022,2.21149 -7.17031,3.8116 z m -93.9941,-5e-5 -0.57362,3.89461 -15.29165,0 0.58872,-4.48334 c 5.79663,-3.52224 9.23586,-5.82933 10.31771,-6.92124 1.08183,-1.09189 1.62275,-2.13096 1.62276,-3.1172 -10e-6,-0.78495 -0.26921,-1.41644 -0.8076,-1.89448 -0.53842,-0.47801 -1.19004,-0.71701 -1.95486,-0.71703 -1.88191,2e-5 -3.10966,1.26299 -3.68329,3.78895 l -4.24181,-1.0114 c 0.54344,-2.07308 1.53973,-3.71596 2.9889,-4.92865 1.44915,-1.21264 3.15997,-1.81897 5.13244,-1.81899 2.14353,2e-5 3.92227,0.62145 5.33623,1.86428 1.41391,1.24287 2.12088,2.80022 2.1209,4.67203 -2e-5,1.44917 -0.40005,2.71971 -1.20009,3.81159 -0.80006,1.09192 -2.00015,2.10834 -3.60025,3.04927 -1.60012,0.94097 -3.99023,2.21149 -7.17031,3.8116 z m -93.994103,5e-5 -0.573622,3.89461 -15.291648,0 0.588719,-4.48334 c 5.796626,-3.52224 9.235862,-5.82933 10.317708,-6.92124 1.081833,-1.09189 1.622749,-2.13096 1.622762,-3.1172 -1.3e-5,-0.78495 -0.269209,-1.41644 -0.807601,-1.89448 -0.538417,-0.478 -1.190037,-0.71701 -1.954858,-0.71703 -1.881911,2e-5 -3.109665,1.263 -3.683287,3.78895 l -4.241813,-1.0114 c 0.543442,-2.07308 1.539729,-3.71596 2.988902,-4.92865 1.449147,-1.21264 3.159954,-1.81897 5.132434,-1.81899 2.143532,2e-5 3.922276,0.62145 5.33623,1.86429 1.413917,1.24286 2.120887,2.80021 2.1209,4.67202 -1.3e-5,1.44917 -0.400045,2.71971 -1.200084,3.81159 -0.800065,1.09192 -2.00015,2.10834 -3.600254,3.04927 -1.600117,0.94097 -3.990225,2.21149 -7.170313,3.8116 z M 125.21749,572.1122 c 0.91578,10e-6 1.68565,-0.31952 2.3096,-0.95856 0.62394,-0.63902 0.93591,-1.41141 0.93592,-2.31715 -1e-5,-0.86545 -0.29438,-1.59003 -0.88308,-2.17374 -0.58873,-0.58367 -1.30073,-0.87551 -2.136,-0.87554 -0.9158,3e-5 -1.68566,0.31954 -2.3096,0.95856 -0.62395,0.63906 -0.93592,1.41144 -0.93592,2.31715 0,0.85543 0.28178,1.57748 0.84534,2.16619 0.56356,0.58873 1.28814,0.8831 2.17374,0.88309 z m -8.67986,6.65707 4.21162,-0.92081 c 0.36229,1.42902 1.2831,2.14354 2.76247,2.14354 1.31832,0 2.36996,-0.59626 3.15493,-1.7888 0.78495,-1.19254 1.41896,-3.09204 1.90203,-5.69852 -1.06676,2.06305 -2.64171,3.09457 -4.72487,3.09455 -1.64037,2e-5 -3.08953,-0.56103 -4.34748,-1.68313 -1.25796,-1.12208 -1.88693,-2.62911 -1.88693,-4.52107 0,-1.86175 0.70697,-3.50967 2.12091,-4.94376 1.41393,-1.43404 3.24803,-2.15107 5.50228,-2.1511 2.53601,3e-5 4.48332,0.81267 5.84192,2.43792 1.35857,1.62528 2.03787,3.69587 2.03788,6.21176 -1e-5,3.1801 -0.87555,6.07842 -2.62659,8.69496 -1.75109,2.61654 -4.11603,3.9248 -7.09485,3.9248 -3.57258,0 -5.85702,-1.6001 -6.85332,-4.80034 z m 103.14193,-3.74366 1.40387,-8.33267 -6.82313,8.33267 z m 7.62317,-0.15096 -0.6189,3.66819 -3.09457,0 -0.80005,4.73997 -4.63429,0 0.80006,-4.73997 -8.61948,0 0.60381,-3.78895 9.8724,-12.34805 5.47964,0 -2.08317,12.46881 z m 93.6922,4.46825 -0.6642,3.93991 -15.4577,0 0.6642,-3.93991 5.41925,0 1.96241,-11.74424 c -0.98624,1.00639 -2.55114,1.50956 -4.69467,1.50955 -0.20129,10e-6 -0.52835,-0.005 -0.98121,-0.0151 l 0.6491,-3.81914 c 3.28073,2e-5 5.61046,-1.03654 6.98919,-3.10966 l 3.48704,0 -2.88323,17.17858 z" />
    <path
       style="font-size:24px;font-style:oblique;font-variant:normal;font-weight:normal;font-stretch:normal;line-height:125%;letter-spacing:0px;word-spacing:0px;fill:#4b4eeb;fill-opacity:1;stroke:#000000;stroke-width:1.28814185;stroke-opacity:1;font-family:Franklin Gothic Demi;-inkscape-font-specification:Franklin Gothic Demi Oblique"
       d="m 192.3125,373.5 c -0.97837,0.78013 0.2569,3.51884 -0.0365,5.01281 0.25326,8.38313 1.38456,16.93048 0.44278,25.23719 -0.12748,2.61087 -3.3307,1.41461 -4.95326,1.16452 -1.27848,0.0303 -3.86837,-1.7721 -4.57799,-0.008 1.28634,2.8744 4.7585,4.45962 6.03125,7.34375 0.90811,1.50692 1.38835,4.57134 3.78125,3.84375 4.86794,-1.88662 7.26326,-7.51028 6.71875,-12.525 -0.0697,-10.07927 -1.54089,-20.10501 -1.34375,-30.19375 -2.02102,0.0226 -4.04164,0.0872 -6.0625,0.125 z M 97.5,373.8125 c -2.856064,0.48278 -6.139728,2.42758 -8.78125,0.5 0.380016,1.84119 -1.673224,5.67015 0.75,5.90625 4.353985,0.25663 9.127561,0.0467 12.84375,-2.1875 1.5477,-1.73801 -1.26901,-3.40649 -2.65625,-3.9375 C 98.958455,373.87902 98.24661,373.6821 97.5,373.8125 z m 293.375,11.78125 c -0.65411,6.01109 -1.28649,12.28509 -4.28125,17.625 -1.83609,3.06341 -5.41853,0.77899 -7.8125,-0.28125 -0.76518,-0.37725 -3.26745,-1.79874 -3.0625,0 1.9641,3.52515 5.47351,6.40775 5.96875,10.5625 0.51689,2.93926 4.12496,1.91684 5.59375,0.59375 6.60463,-4.95909 8.32141,-13.8502 9.11452,-21.67065 0.26322,-2.1731 0.34817,-4.36942 0.79173,-6.51685 -1.94236,0.0366 -5.04284,-1.21549 -6.3125,-0.35 l 0,0.0375 z m -87.53125,8.3125 c -1.5944,4.03407 -0.92939,8.95291 -2.84375,12.875 -3.12452,3.26825 -8.48719,2.65969 -12.53078,1.7658 -1.94723,-1.52278 -3.31329,1.34723 -4.96922,2.20295 -0.52724,0.88916 1.35648,1.88068 2.09375,2.4375 6.21009,2.90127 13.74688,2.27064 20.03125,-0.0937 2.52759,-0.638 2.60467,-3.60902 1.34375,-5.4375 -1.84933,-4.30639 -1.05476,-9.37881 -2.46875,-13.71875 -0.10549,-0.21559 -0.53529,-0.23106 -0.65625,-0.0312 z m 22.25,127.28125 c -1.8523,1.12846 0.77429,3.49523 1.18627,4.88504 3.39792,5.73584 5.48888,12.38808 10.18873,17.20871 2.1709,1.53491 3.36582,-1.83274 3.53826,-3.48766 0.90584,-6.0518 -3.87346,-10.96284 -7.90611,-14.77072 -2.03538,-1.63004 -4.30149,-3.69798 -7.00715,-3.83537 z M 140.3125,523.875 c -1.55557,0.37934 0.11266,2.15594 -0.5625,3.09375 -2.54643,7.22641 -8.67424,12.39777 -13.5625,17.9375 -0.33432,1.71508 2.16959,0.5062 2.86061,0.0769 5.26926,-2.61227 9.39622,-6.9766 13.42064,-11.23316 4.96159,4.23712 9.10432,9.8215 14.46875,13.65625 2.26354,0.73055 2.83711,-2.69532 2.625,-4.3125 -0.99167,-5.60186 -7.07397,-8.36901 -11.97404,-10.09276 -1.24325,-0.72513 -5.10228,-0.59967 -2.70314,-2.33594 1.64355,-1.04855 2.42812,-3.36029 0.58343,-4.66505 -1.39076,-1.21137 -3.28229,-2.1728 -5.15625,-2.125 z"
       id="path4603"
       inkscape:connector-curvature="0" />
    <path
       id="path3804"
       style="font-size:24px;font-style:oblique;font-variant:normal;font-weight:normal;font-stretch:normal;line-height:125%;letter-spacing:0px;word-spacing:0px;fill:#4b4eeb;fill-opacity:1;stroke:#000000;stroke-width:1.28814184999999990;stroke-opacity:1;font-family:Franklin Gothic Demi;-inkscape-font-specification:Franklin Gothic Demi Oblique"
       d="m 139.52795,573.0783 c -1.80139,-1.09692 -2.70209,-2.54608 -2.70209,-4.34748 0,-1.61016 0.73717,-3.05428 2.21148,-4.33238 1.47432,-1.27805 3.43924,-1.9171 5.89476,-1.91711 2.0429,1e-5 3.69082,0.44029 4.94375,1.32084 1.25291,0.88059 1.87936,2.03035 1.87938,3.4493 -2e-5,2.16369 -1.44918,3.79903 -4.34748,4.90602 2.30455,1.06675 3.45684,2.64673 3.45685,4.73995 -1e-5,1.85171 -0.77994,3.39648 -2.33979,4.63429 -1.55987,1.23783 -3.56755,1.85674 -6.02307,1.85674 -2.30457,0 -4.19401,-0.4428 -5.66833,-1.32839 -1.47432,-0.8856 -2.21147,-2.13852 -2.21147,-3.75876 0,-1.20764 0.45034,-2.30205 1.35103,-3.28326 0.9007,-0.98119 2.08568,-1.62777 3.55498,-1.93976 z m 182.64442,4.45315 4.03048,-0.76986 c 0.62394,2.19386 1.94228,3.2908 3.955,3.29079 1.0466,10e-6 1.86931,-0.27422 2.4681,-0.8227 0.59877,-0.54846 0.89816,-1.24034 0.89817,-2.07562 -10e-6,-0.66419 -0.18618,-1.23027 -0.55852,-1.69823 -0.37237,-0.46795 -0.80007,-0.76483 -1.28312,-0.89063 -0.48305,-0.12585 -1.21267,-0.18868 -2.18882,-0.1887 l -1.52465,0 0.48305,-3.50213 2.20394,0 c 2.4857,10e-6 3.72855,-0.87049 3.72856,-2.6115 -1e-5,-0.74469 -0.27424,-1.34096 -0.82269,-1.78881 -0.54848,-0.44782 -1.23532,-0.67172 -2.06053,-0.67175 -1.59006,3e-5 -2.74234,0.82523 -3.45684,2.47565 l -4.06068,-1.13216 c 1.44916,-3.31091 4.02545,-4.96636 7.72885,-4.96639 2.17373,3e-5 3.95247,0.51327 5.33623,1.53974 1.38374,1.02651 2.07561,2.40018 2.07563,4.12104 -2e-5,1.18752 -0.35979,2.24169 -1.07932,3.16249 -0.71957,0.92084 -1.72341,1.49698 -3.01154,1.72843 1.09692,0.40256 1.92968,1.03908 2.49829,1.90957 0.56857,0.87051 0.85288,1.80391 0.85289,2.8002 -10e-6,1.72088 -0.71202,3.20778 -2.136,4.46069 -1.42401,1.25293 -3.35371,1.87937 -5.78909,1.87937 -2.23412,0 -4.08583,-0.58368 -5.55511,-1.75106 -1.46929,-1.16738 -2.38005,-2.66685 -2.73228,-4.49843 z m -176.75722,-6.5665 c 1.66048,-0.70445 2.49074,-1.70577 2.49075,-3.004 -1e-5,-0.78494 -0.31198,-1.44411 -0.93592,-1.97749 -0.62395,-0.53335 -1.48943,-0.80004 -2.59641,-0.80006 -1.01643,2e-5 -1.82907,0.2189 -2.43791,0.65665 -0.60885,0.43779 -0.91328,0.9938 -0.91326,1.66804 -2e-5,1.39886 1.46424,2.55114 4.39275,3.45686 z m -3.68327,3.41155 c -0.94599,0.19123 -1.71335,0.59628 -2.30205,1.21519 -0.58873,0.61892 -0.88309,1.2806 -0.88309,1.98505 0,0.8554 0.38745,1.54728 1.16234,2.07562 0.7749,0.52833 1.7863,0.7925 3.03418,0.7925 1.10699,0 2.0102,-0.22139 2.70964,-0.66419 0.69941,-0.4428 1.04911,-1.06675 1.04912,-1.87184 -10e-6,-0.7145 -0.36985,-1.32587 -1.10951,-1.83409 -0.73968,-0.5082 -1.9599,-1.07429 -3.66063,-1.69824 z m -34.44164,-133.7049 -0.66421,3.9399 -15.4577,0 0.664205,-3.9399 5.419251,0 1.962407,-11.74423 c -0.98624,1.00637 -2.551139,1.50956 -4.694672,1.50954 -0.201285,2e-5 -0.528344,-0.005 -0.981203,-0.0151 l 0.649095,-3.81914 c 3.280729,2e-5 5.61045,-1.03653 6.989177,-3.10966 l 3.48705,0 -2.88324,17.17859 z m 92.96761,0.0453 -0.57363,3.89461 -15.29164,0 0.58871,-4.48334 c 5.79663,-3.52224 9.23587,-5.82933 10.31771,-6.92124 1.08184,-1.09189 1.62275,-2.13096 1.62276,-3.1172 -1e-5,-0.78495 -0.2692,-1.41644 -0.8076,-1.89448 -0.53841,-0.478 -1.19003,-0.71701 -1.95485,-0.71703 -1.88192,2e-5 -3.10967,1.263 -3.68329,3.78895 l -4.24181,-1.0114 c 0.54344,-2.07308 1.53972,-3.71596 2.9889,-4.92865 1.44914,-1.21264 3.15996,-1.81897 5.13243,-1.81899 2.14353,2e-5 3.92228,0.62145 5.33623,1.86429 1.41392,1.24286 2.12089,2.80021 2.1209,4.67202 -1e-5,1.44917 -0.40004,2.71971 -1.20008,3.81159 -0.80007,1.09192 -2.00015,2.10834 -3.60026,3.04927 -1.60011,0.94097 -3.99022,2.21149 -7.17031,3.8116 z m 95.02059,-0.0453 -0.6642,3.9399 -15.4577,0 0.6642,-3.9399 5.41925,0 1.96241,-11.74423 c -0.98624,1.00637 -2.55114,1.50956 -4.69467,1.50954 -0.20129,2e-5 -0.52835,-0.005 -0.98121,-0.0151 l 0.6491,-3.81914 c 3.28073,2e-5 5.61045,-1.03653 6.98917,-3.10966 l 3.48706,0 -2.88324,17.17859 z m 92.96761,0.0453 -0.57362,3.89461 -15.29165,0 0.58872,-4.48334 c 5.79663,-3.52224 9.23586,-5.82933 10.31771,-6.92124 1.08183,-1.09189 1.62275,-2.13096 1.62276,-3.1172 -10e-6,-0.78495 -0.26921,-1.41644 -0.8076,-1.89448 -0.53842,-0.478 -1.19004,-0.71701 -1.95486,-0.71703 -1.88191,2e-5 -3.10966,1.263 -3.68329,3.78895 l -4.24181,-1.0114 c 0.54344,-2.07308 1.53973,-3.71596 2.9889,-4.92865 1.44915,-1.21264 3.15997,-1.81897 5.13244,-1.81899 2.14353,2e-5 3.92227,0.62145 5.33623,1.86429 1.41391,1.24286 2.12089,2.80021 2.1209,4.67202 -1e-5,1.44917 -0.40005,2.71971 -1.20009,3.81159 -0.80006,1.09192 -2.00015,2.10834 -3.60025,3.04927 -1.60012,0.94097 -3.99023,2.21149 -7.17031,3.8116 z" />
    <g
       id="g4884"
       transform="matrix(1.2881419,0,0,1.2881419,-116.97496,-164.66564)">
      <path
         id="path4186"
         style="font-size:20px;font-style:normal;font-variant:normal;font-weight:normal;font-stretch:normal;line-height:125%;letter-spacing:0px;word-spacing:0px;fill:#ff8f8f;fill-opacity:1;stroke:#ff0000;stroke-opacity:1;font-family:DejaVu Sans;-inkscape-font-specification:DejaVu Sans"
         d="m 180.48257,477.21376 c -1.54948,0 -2.73763,-0.56478 -3.56445,-1.69433 -0.82683,-1.12956 -1.24024,-2.52441 -1.24024,-4.18457 0,-1.97916 0.51595,-3.80533 1.54785,-5.47852 1.0319,-1.67316 2.45605,-2.50975 4.27247,-2.50976 1.45181,10e-6 2.59927,0.5241 3.44238,1.57226 0.84309,1.04819 1.26463,2.44142 1.26465,4.17969 -2e-5,2.14193 -0.51271,4.02995 -1.53809,5.66406 -1.0254,1.63412 -2.42025,2.45117 -4.18457,2.45117 z m 0.0977,-2.28515 c 1.0026,0 1.68782,-0.78776 2.05566,-2.36328 0.36783,-1.57552 0.55175,-2.95573 0.55176,-4.14063 -1e-5,-1.1328 -0.1709,-1.88475 -0.51269,-2.25586 -0.34181,-0.37108 -0.76661,-0.55663 -1.27442,-0.55664 -0.57292,1e-5 -1.0319,0.21974 -1.37695,0.65918 -0.34506,0.43946 -0.64291,1.22397 -0.89355,2.35352 -0.25066,1.12956 -0.37598,2.29981 -0.37598,3.51074 -1e-5,1.04167 0.15624,1.76758 0.46875,2.17773 0.31249,0.41016 0.76497,0.61524 1.35742,0.61524 z m 93.9757,105.98227 c -1.85938,0 -3.28516,-0.67774 -4.27735,-2.03321 -0.99219,-1.35546 -1.48828,-3.02929 -1.48828,-5.02148 0,-2.37499 0.61914,-4.5664 1.85742,-6.57422 1.23828,-2.0078 2.94726,-3.0117 5.12696,-3.01172 1.74218,2e-5 3.11913,0.62892 4.13086,1.88672 1.0117,1.25783 1.51756,2.9297 1.51757,5.01563 -1e-5,2.57032 -0.61524,4.83594 -1.8457,6.79687 -1.23048,1.96094 -2.9043,2.94141 -5.02148,2.94141 z m 0.11718,-2.74219 c 1.20312,0 2.02539,-0.94531 2.4668,-2.83594 0.4414,-1.89062 0.6621,-3.54686 0.66211,-4.96875 -10e-6,-1.35936 -0.20509,-2.2617 -0.61523,-2.70703 -0.41017,-0.4453 -0.91993,-0.66795 -1.5293,-0.66797 -0.68751,2e-5 -1.23829,0.26369 -1.65234,0.79102 -0.41407,0.52735 -0.77149,1.46876 -1.07227,2.82422 -0.30079,1.35547 -0.45118,2.75977 -0.45117,4.21289 -10e-6,1.25 0.18749,2.12109 0.5625,2.61328 0.37499,0.49219 0.91796,0.73828 1.6289,0.73828 z m -28.24218,2.74219 c -1.85938,0 -3.28516,-0.67774 -4.27735,-2.03321 -0.99219,-1.35546 -1.48828,-3.02929 -1.48828,-5.02148 0,-2.37499 0.61914,-4.5664 1.85742,-6.57422 1.23828,-2.0078 2.94726,-3.0117 5.12696,-3.01172 1.74218,2e-5 3.11913,0.62892 4.13086,1.88672 1.0117,1.25783 1.51756,2.9297 1.51757,5.01563 -1e-5,2.57032 -0.61524,4.83594 -1.8457,6.79687 -1.23048,1.96094 -2.9043,2.94141 -5.02148,2.94141 z m 0.11718,-2.74219 c 1.20312,0 2.02539,-0.94531 2.4668,-2.83594 0.4414,-1.89062 0.6621,-3.54686 0.66211,-4.96875 -1e-5,-1.35936 -0.20509,-2.2617 -0.61523,-2.70703 -0.41017,-0.4453 -0.91993,-0.66795 -1.5293,-0.66797 -0.68751,2e-5 -1.23829,0.26369 -1.65234,0.79102 -0.41407,0.52735 -0.77149,1.46876 -1.07227,2.82422 -0.30079,1.35547 -0.45118,2.75977 -0.45117,4.21289 -1e-5,1.25 0.18749,2.12109 0.5625,2.61328 0.37499,0.49219 0.91796,0.73828 1.6289,0.73828 z M 139.4357,473.25872 c -1.85938,0 -3.28516,-0.67773 -4.27735,-2.0332 -0.99219,-1.35546 -1.48828,-3.02929 -1.48828,-5.02148 0,-2.37499 0.61914,-4.5664 1.85742,-6.57422 1.23828,-2.0078 2.94726,-3.0117 5.12696,-3.01172 1.74217,2e-5 3.11912,0.62892 4.13085,1.88672 1.01171,1.25782 1.51757,2.9297 1.51758,5.01562 -10e-6,2.57032 -0.61524,4.83595 -1.8457,6.79688 -1.23048,1.96094 -2.90431,2.9414 -5.02148,2.9414 z m 0.11718,-2.74218 c 1.20312,0 2.02538,-0.94531 2.4668,-2.83594 0.4414,-1.89062 0.6621,-3.54687 0.66211,-4.96875 -1e-5,-1.35936 -0.20509,-2.26171 -0.61524,-2.70703 -0.41016,-0.4453 -0.91993,-0.66796 -1.52929,-0.66797 -0.68751,10e-6 -1.23829,0.26368 -1.65235,0.79102 -0.41406,0.52735 -0.77149,1.46876 -1.07226,2.82421 -0.30079,1.35548 -0.45118,2.75978 -0.45117,4.21289 -1e-5,1.25001 0.18749,2.1211 0.5625,2.61329 0.37499,0.49219 0.91796,0.73828 1.6289,0.73828 z"
         inkscape:connector-curvature="0" />
      <path
         id="path4665"
         style="font-size:20px;font-style:oblique;font-variant:normal;font-weight:normal;font-stretch:normal;line-height:125%;letter-spacing:0px;word-spacing:0px;fill:#1fcf9d;fill-opacity:1;stroke:#000000;stroke-opacity:1;font-family:Franklin Gothic Demi;-inkscape-font-specification:Franklin Gothic Demi Oblique"
         d="m 259.52554,463.65908 -0.22461,2.13867 c -1.32162,1.15886 -2.54233,2.74577 -3.66211,4.76074 -1.1198,2.01498 -1.77735,4.15853 -1.97266,6.43066 l -3.52539,0 c 0.19531,-1.51041 0.70964,-3.10709 1.54297,-4.79004 0.83333,-1.68293 1.77571,-3.06314 2.82715,-4.14062 1.05143,-1.07746 1.73339,-1.69758 2.0459,-1.86035 l -6.89453,0 0.45898,-2.53906 z m 72.96875,0 -0.22461,2.13867 c -1.32162,1.15886 -2.54233,2.74577 -3.66211,4.76074 -1.1198,2.01498 -1.77735,4.15853 -1.97266,6.43066 l -3.52539,0 c 0.19531,-1.51041 0.70964,-3.10709 1.54297,-4.79004 0.83333,-1.68293 1.77571,-3.06314 2.82715,-4.14062 1.05143,-1.07746 1.73339,-1.69758 2.0459,-1.86035 l -6.89453,0 0.45898,-2.53906 z m 72.96875,0 -0.22461,2.13867 c -1.32162,1.15886 -2.54233,2.74577 -3.66211,4.76074 -1.1198,2.01498 -1.77735,4.15853 -1.97266,6.43066 l -3.52539,0 c 0.19531,-1.51041 0.70964,-3.10709 1.54297,-4.79004 0.83333,-1.68293 1.77571,-3.06314 2.82715,-4.14062 1.05143,-1.07746 1.73339,-1.69758 2.0459,-1.86035 l -6.89453,0 0.45898,-2.53906 z M 214.99737,582.56127 c 0.57942,0 1.06282,-0.20345 1.4502,-0.61035 0.38736,-0.4069 0.58105,-0.92611 0.58105,-1.55762 0,-0.60547 -0.19043,-1.10026 -0.57129,-1.48438 -0.38086,-0.3841 -0.84798,-0.57616 -1.40136,-0.57617 -0.58595,10e-6 -1.08562,0.20834 -1.49903,0.625 -0.41341,0.41667 -0.62012,0.93751 -0.62011,1.5625 -10e-6,0.65756 0.21646,1.16211 0.64941,1.51367 0.43294,0.35157 0.90332,0.52735 1.41113,0.52735 z m 5.41993,-7.66602 -2.64649,0.22461 c -0.14975,-1.24348 -0.76498,-1.86522 -1.8457,-1.86523 -1.62761,10e-6 -2.61394,1.54298 -2.95899,4.6289 0.68359,-1.17837 1.66015,-1.76757 2.92969,-1.76758 1.14583,10e-6 2.10774,0.39715 2.88574,1.19141 0.77799,0.79428 1.16698,1.76433 1.167,2.91016 -2e-5,1.21094 -0.43296,2.28678 -1.29883,3.22754 -0.8659,0.94075 -2.06707,1.41113 -3.60352,1.41113 -1.54297,0 -2.78972,-0.51432 -3.74023,-1.54297 -0.95052,-1.02864 -1.42578,-2.45442 -1.42578,-4.27734 0,-2.14843 0.54036,-4.01855 1.62109,-5.61035 1.08073,-1.59179 2.57161,-2.38769 4.47266,-2.3877 1.23046,10e-6 2.24445,0.34832 3.04199,1.04492 0.79751,0.69663 1.26464,1.63413 1.40137,2.8125 z m 73.13476,-3.58398 -0.22461,2.13867 c -1.32162,1.15886 -2.54232,2.74578 -3.66211,4.76074 -1.1198,2.01498 -1.77735,4.15853 -1.97265,6.43067 l -3.52539,0 c 0.19531,-1.51042 0.70963,-3.1071 1.54296,-4.79004 0.83333,-1.68294 1.77571,-3.06315 2.82715,-4.14063 1.05143,-1.07746 1.73339,-1.69758 2.0459,-1.86035 l -6.89453,0 0.45898,-2.53906 z m 72.34375,10.78125 -0.42969,2.54883 -10,0 0.42969,-2.54883 3.50586,0 1.26953,-7.59766 c -0.63802,0.65105 -1.65039,0.97657 -3.03711,0.97656 -0.13021,1e-5 -0.3418,-0.003 -0.63476,-0.01 l 0.41992,-2.47071 c 2.12239,2e-5 3.62955,-0.67056 4.52148,-2.01171 l 2.25586,0 -1.86523,11.11328 z" />
      <path
         style="font-size:20px;font-style:oblique;font-variant:normal;font-weight:normal;font-stretch:normal;line-height:125%;letter-spacing:0px;word-spacing:0px;fill:#1fcf9d;fill-opacity:1;stroke:#000000;stroke-opacity:1;font-family:Franklin Gothic Demi;-inkscape-font-specification:Franklin Gothic Demi Oblique"
         d="m 236.625,405.4375 c -1.77541,0.66935 -3.64504,1.17907 -5.53125,1.5625 0.38328,2.70692 1.64483,3.89638 4.33425,2.82413 2.00642,-0.84208 3.95589,0.77896 3.7373,2.91317 0.50129,1.80068 -0.047,4.57321 0.92845,5.7627 1.40442,-0.58127 5.23741,1.11834 4.78125,-1.21875 -0.0651,-2.3686 0.46229,-4.6002 1.375,-6.65625 -0.49195,-2.67301 -3.96783,-3.51177 -6.09375,-4.65625 -1.12795,-0.42477 -2.3181,-0.75434 -3.53125,-0.53125 z m 156.84375,11.40625 c -2.61632,0.61157 -5.1805,1.17442 -7.875,1.65625 -0.5918,3.19586 1.46594,3.14373 3.92012,2.40749 1.62439,-0.39995 4.35292,-0.73261 4.64238,1.46751 0.27972,1.70412 0.11644,3.44618 -0.0312,5.15625 1.77829,-0.25731 5.58903,2.04093 5.25326,-1.05081 -0.12413,-2.27832 1.93255,-4.09101 1.77799,-6.32419 -1.59441,-2.15821 -4.6411,-3.24846 -7.28125,-3.375 l -0.39535,0.0608 -0.0109,0.002 z m -84.5,8.3125 c -1.637,0.85313 -3.41649,1.02998 -5.25,1.0625 0.0512,1.90851 0.17985,3.47093 2.3375,2.6875 2.09296,-0.83318 1.89429,1.27817 1.83889,2.6186 -0.0677,2.45351 -0.4917,4.88886 -0.36389,7.35015 1.4415,-0.28806 4.12489,0.38944 3.4375,-1.75 -0.0129,-3.23525 0.64227,-6.51864 2.71875,-8.875 -0.32428,-1.75031 -3.00445,-3.26446 -4.71875,-3.09375 z m -45.375,85.5 c -2.86215,0.85827 -5.60094,2.29535 -8.5625,3 0.90917,1.69457 1.78676,3.58673 3.78784,2.03812 1.29983,-0.35276 2.80423,-1.22566 4.02466,-1.03812 -0.30963,2.67642 -1.53365,5.38466 -2.90625,7.75 1.63152,3.10837 3.27899,-0.33801 4.94706,-1.6184 1.73868,-2.08832 4.04654,-3.22788 6.14669,-4.72535 0.74064,-2.06558 -2.08234,-3.26711 -3.44238,-4.2586 -1.19779,-0.72225 -2.56497,-1.35281 -3.99512,-1.14765 z m -58.6875,11.65625 c -3.17389,1.35865 -6.51032,2.7321 -10.0625,2.0625 -1.74682,0.37017 0.22623,2.59753 0.0937,3.71875 0.93921,2.65239 0.58097,5.97343 2.25,8.1875 1.6627,0.47546 0.6393,-3.18318 2.63397,-2.40454 2.91497,-0.51197 6.29209,0.11949 8.89728,-1.31421 0.48947,-1.38355 -1.78951,-2.28928 -0.5,-3.625 0.20364,-1.83013 2.78492,-2.83864 2.4375,-4.59375 -1.54562,-1.2512 -3.75333,-2.03569 -5.75,-2.03125 z m 151.03125,0 c -7.22012,0.92674 -14.40985,2.23035 -21.64342,2.96401 -5.22756,1.23819 -10.63265,2.01788 -15.91908,2.53599 -1.70681,1.05147 0.93528,2.6592 1.9375,3.09375 3.35309,1.68071 6.86647,-0.7547 10.29865,-0.92137 9.07081,-1.43105 18.2744,-2.19433 27.45135,-2.60988 1.87773,-0.36976 4.80933,0.90792 6.03125,-0.96875 -0.0241,-2.70938 -3.5056,-3.92156 -5.84375,-4.09375 -0.77029,-0.049 -1.54199,-0.0389 -2.3125,0 z M 204.25,525.84375 c 0.77548,1.2548 -0.1924,3.17393 -0.15625,4.625 -1.63502,0.53979 -3.21937,1.10198 -4.9375,1.0625 -0.0985,-1.38816 -1.14219,-3.7531 -0.10871,-4.708 1.72727,-0.3487 3.45692,-0.75987 5.20246,-0.9795 z"
         id="path4125"
         inkscape:connector-curvature="0" />
    </g>
  </g>
</svg>
